<?xml version="1.0" standalone="no"?><!DOCTYPE svg PUBLIC "-//W3C//DTD SVG 1.1//EN" "http://www.w3.org/Graphics/SVG/1.1/DTD/svg11.dtd"><svg t="1520576479067" class="icon" style="" viewBox="0 0 1024 1024" version="1.1" xmlns="http://www.w3.org/2000/svg" p-id="34787" xmlns:xlink="http://www.w3.org/1999/xlink" width="128" height="128"><defs><style type="text/css"></style></defs><path d="M512.032 34.304c169.312 0 307.072 137.76 307.072 307.104 0 53.856-14.272 106.912-41.28 153.568l-265.824 460.608-265.856-460.64c-26.976-46.592-41.248-99.68-41.248-153.536 0-169.344 137.76-307.104 307.104-307.104zM512.032 460.8c65.856 0 119.392-53.568 119.392-119.392s-53.568-119.392-119.392-119.392c-65.856 0-119.424 53.568-119.424 119.392s53.568 119.392 119.424 119.392zM512.032 0.192c-188.448 0-341.216 152.8-341.216 341.216 0 62.24 16.736 120.384 45.824 170.624l295.36 511.808 295.36-511.808c29.088-50.24 45.824-108.384 45.824-170.624 0-188.416-152.768-341.216-341.184-341.216l0 0zM512.032 426.688c-47.104 0-85.312-38.176-85.312-85.28 0-47.072 38.208-85.28 85.312-85.28s85.28 38.208 85.28 85.28c0 47.104-38.176 85.28-85.28 85.28l0 0z" p-id="34788" fill="#888888"></path></svg>